<svg width="97" height="98" viewBox="0 0 97 98" fill="none" xmlns="http://www.w3.org/2000/svg">
<path d="M35.8652 51.8682H39.6611C39.585 53.1123 39.2422 54.2168 38.6328 55.1816C38.0319 56.1465 37.1898 56.8997 36.1064 57.4414C35.0316 57.9831 33.7367 58.2539 32.2217 58.2539C31.0368 58.2539 29.9746 58.0508 29.0352 57.6445C28.0957 57.2298 27.2917 56.6374 26.623 55.8672C25.9629 55.097 25.4593 54.166 25.1123 53.0742C24.7653 51.9824 24.5918 50.7594 24.5918 49.4053V48.123C24.5918 46.7689 24.7695 45.5459 25.125 44.4541C25.4889 43.3538 26.0052 42.4186 26.6738 41.6484C27.3509 40.8783 28.1592 40.2858 29.0986 39.8711C30.0381 39.4564 31.0876 39.249 32.2471 39.249C33.7874 39.249 35.0866 39.5283 36.1445 40.0869C37.2109 40.6455 38.0361 41.4157 38.6201 42.3975C39.2126 43.3792 39.568 44.4964 39.6865 45.749H35.8779C35.8356 45.0042 35.6875 44.3737 35.4336 43.8574C35.1797 43.3327 34.7946 42.9391 34.2783 42.6768C33.7705 42.4059 33.0934 42.2705 32.2471 42.2705C31.6123 42.2705 31.0579 42.389 30.584 42.626C30.11 42.863 29.7122 43.2227 29.3906 43.7051C29.069 44.1875 28.8278 44.7969 28.667 45.5332C28.5146 46.2611 28.4385 47.1159 28.4385 48.0977V49.4053C28.4385 50.3617 28.5104 51.2038 28.6543 51.9316C28.7982 52.651 29.0182 53.2604 29.3145 53.7598C29.6191 54.2507 30.0085 54.623 30.4824 54.877C30.9648 55.1224 31.5446 55.2451 32.2217 55.2451C33.0173 55.2451 33.6732 55.1182 34.1895 54.8643C34.7057 54.6104 35.0993 54.2337 35.3701 53.7344C35.6494 53.235 35.8145 52.613 35.8652 51.8682ZM51.7852 53.1631C51.7852 52.833 51.7344 52.5368 51.6328 52.2744C51.5397 52.0036 51.362 51.7581 51.0996 51.5381C50.8372 51.3096 50.4691 51.0853 49.9951 50.8652C49.5212 50.6452 48.9076 50.4167 48.1543 50.1797C47.3164 49.9089 46.5208 49.6042 45.7676 49.2656C45.0228 48.9271 44.3626 48.5335 43.7871 48.085C43.2201 47.6279 42.7715 47.099 42.4414 46.498C42.1198 45.8971 41.959 45.1989 41.959 44.4033C41.959 43.6331 42.1283 42.9349 42.4668 42.3086C42.8053 41.6738 43.2793 41.1322 43.8887 40.6836C44.498 40.2266 45.2174 39.8753 46.0469 39.6299C46.8848 39.3844 47.8031 39.2617 48.8018 39.2617C50.1644 39.2617 51.3535 39.5072 52.3691 39.998C53.3848 40.4889 54.1719 41.1618 54.7305 42.0166C55.2975 42.8714 55.5811 43.849 55.5811 44.9492H51.7979C51.7979 44.4076 51.6836 43.9336 51.4551 43.5273C51.235 43.1126 50.8965 42.7868 50.4395 42.5498C49.9909 42.3128 49.4238 42.1943 48.7383 42.1943C48.0781 42.1943 47.528 42.2959 47.0879 42.499C46.6478 42.6937 46.3177 42.9603 46.0977 43.2988C45.8776 43.6289 45.7676 44.0013 45.7676 44.416C45.7676 44.7292 45.8438 45.0127 45.9961 45.2666C46.1569 45.5205 46.3939 45.7575 46.707 45.9775C47.0202 46.1976 47.4053 46.4049 47.8623 46.5996C48.3193 46.7943 48.8483 46.9847 49.4492 47.1709C50.4564 47.4756 51.3408 47.8184 52.1025 48.1992C52.8727 48.5801 53.516 49.0075 54.0322 49.4814C54.5485 49.9554 54.9378 50.4928 55.2002 51.0938C55.4626 51.6947 55.5938 52.376 55.5938 53.1377C55.5938 53.9417 55.4372 54.6611 55.124 55.2959C54.8109 55.9307 54.3581 56.4681 53.7656 56.9082C53.1732 57.3483 52.4665 57.6826 51.6455 57.9111C50.8245 58.1396 49.9062 58.2539 48.8906 58.2539C47.9766 58.2539 47.0752 58.1354 46.1865 57.8984C45.2979 57.653 44.4896 57.2848 43.7617 56.7939C43.0423 56.3031 42.4668 55.6768 42.0352 54.915C41.6035 54.1533 41.3877 53.252 41.3877 52.2109H45.209C45.209 52.7865 45.2979 53.2731 45.4756 53.6709C45.6533 54.0687 45.903 54.3903 46.2246 54.6357C46.5547 54.8812 46.944 55.0589 47.3926 55.1689C47.8496 55.279 48.349 55.334 48.8906 55.334C49.5508 55.334 50.0924 55.2409 50.5156 55.0547C50.9473 54.8685 51.2646 54.6104 51.4678 54.2803C51.6794 53.9502 51.7852 53.5778 51.7852 53.1631ZM67.8066 53.1631C67.8066 52.833 67.7559 52.5368 67.6543 52.2744C67.5612 52.0036 67.3835 51.7581 67.1211 51.5381C66.8587 51.3096 66.4906 51.0853 66.0166 50.8652C65.5426 50.6452 64.929 50.4167 64.1758 50.1797C63.3379 49.9089 62.5423 49.6042 61.7891 49.2656C61.0443 48.9271 60.3841 48.5335 59.8086 48.085C59.2415 47.6279 58.793 47.099 58.4629 46.498C58.1413 45.8971 57.9805 45.1989 57.9805 44.4033C57.9805 43.6331 58.1497 42.9349 58.4883 42.3086C58.8268 41.6738 59.3008 41.1322 59.9102 40.6836C60.5195 40.2266 61.2389 39.8753 62.0684 39.6299C62.9062 39.3844 63.8245 39.2617 64.8232 39.2617C66.1859 39.2617 67.375 39.5072 68.3906 39.998C69.4062 40.4889 70.1934 41.1618 70.752 42.0166C71.319 42.8714 71.6025 43.849 71.6025 44.9492H67.8193C67.8193 44.4076 67.7051 43.9336 67.4766 43.5273C67.2565 43.1126 66.918 42.7868 66.4609 42.5498C66.0124 42.3128 65.4453 42.1943 64.7598 42.1943C64.0996 42.1943 63.5495 42.2959 63.1094 42.499C62.6693 42.6937 62.3392 42.9603 62.1191 43.2988C61.8991 43.6289 61.7891 44.0013 61.7891 44.416C61.7891 44.7292 61.8652 45.0127 62.0176 45.2666C62.1784 45.5205 62.4154 45.7575 62.7285 45.9775C63.0417 46.1976 63.4268 46.4049 63.8838 46.5996C64.3408 46.7943 64.8698 46.9847 65.4707 47.1709C66.4779 47.4756 67.3623 47.8184 68.124 48.1992C68.8942 48.5801 69.5374 49.0075 70.0537 49.4814C70.57 49.9554 70.9593 50.4928 71.2217 51.0938C71.484 51.6947 71.6152 52.376 71.6152 53.1377C71.6152 53.9417 71.4587 54.6611 71.1455 55.2959C70.8324 55.9307 70.3796 56.4681 69.7871 56.9082C69.1947 57.3483 68.488 57.6826 67.667 57.9111C66.846 58.1396 65.9277 58.2539 64.9121 58.2539C63.998 58.2539 63.0967 58.1354 62.208 57.8984C61.3193 57.653 60.5111 57.2848 59.7832 56.7939C59.0638 56.3031 58.4883 55.6768 58.0566 54.915C57.625 54.1533 57.4092 53.252 57.4092 52.2109H61.2305C61.2305 52.7865 61.3193 53.2731 61.4971 53.6709C61.6748 54.0687 61.9245 54.3903 62.2461 54.6357C62.5762 54.8812 62.9655 55.0589 63.4141 55.1689C63.8711 55.279 64.3704 55.334 64.9121 55.334C65.5723 55.334 66.1139 55.2409 66.5371 55.0547C66.9688 54.8685 67.2861 54.6104 67.4893 54.2803C67.7008 53.9502 67.8066 53.5778 67.8066 53.1631Z" fill="white"/>
<rect x="2.5" y="2.5" width="92" height="93" stroke="#F6F6F6" stroke-width="5"/>
</svg>
