<svg width="97" height="98" viewBox="0 0 97 98" fill="none" xmlns="http://www.w3.org/2000/svg">
<path d="M26.9775 47.0439V50.0146H17.3291V47.0439H26.9775ZM18.459 39.5156V58H14.6504V39.5156H18.459ZM29.6943 39.5156V58H25.8984V39.5156H29.6943ZM40.8916 39.5156V58H37.0957V39.5156H40.8916ZM46.5791 39.5156V42.499H31.4971V39.5156H46.5791ZM50.4893 39.5156H53.7139L58.4619 53.0869L63.21 39.5156H66.4346L59.7568 58H57.167L50.4893 39.5156ZM48.75 39.5156H51.9619L52.5459 52.7441V58H48.75V39.5156ZM64.9619 39.5156H68.1865V58H64.3779V52.7441L64.9619 39.5156ZM83.4082 55.0293V58H74.1025V55.0293H83.4082ZM75.334 39.5156V58H71.5254V39.5156H75.334Z" fill="white"/>
<rect x="2.5" y="2.5" width="92" height="93" stroke="#F6F6F6" stroke-width="5"/>
</svg>
